<?xml version="1.0" encoding="utf-8"?>
<!-- Generator: Adobe Illustrator 22.0.0, SVG Export Plug-In . SVG Version: 6.00 Build 0)  -->
<svg version="1.1" id="Capa_1" xmlns="http://www.w3.org/2000/svg" xmlns:xlink="http://www.w3.org/1999/xlink" x="0px" y="0px"
	 viewBox="0 0 424.4 380.5" style="enable-background:new 0 0 424.4 380.5;" xml:space="preserve">
<style type="text/css">
	.st0{fill:#FFFFFF;}
</style>
<g id="Capa_1_1_">
</g>
<g>
	<path class="st0" d="M125.3,213.4c0.5,21.4,8.2,39.8,21.5,56.2c8,9.8,16.2,19.5,23.6,29.8c13.6,18.7,19.5,40,19.5,63
		c0,9.6-8.3,17.6-17.8,17.9c-9.6,0.3-18.5-8.2-18.4-18.1c0.3-16.7-5.1-31.7-15.3-44.9c-7-9.2-14.6-18-21.8-27.1
		c-12.4-15.7-21-33.2-24.9-53c-9.9-49.8,12.5-100.6,55.9-127.1c9.6-5.9,19.9-10.3,30.7-13.3c8-2.2,16.2-3.6,24.6-4
		c11.7-0.7,23.2,0,34.5,2.9c39.1,9.9,67.8,33.1,83.4,70.3c18.2,43.5,11.9,84.7-16.3,122.4c-7.4,9.8-15.5,19-23,28.8
		c-7.9,10.4-12.8,22.1-14.3,35.2c-0.9,7.5-6.2,13.6-13.2,15.5c-7.3,1.9-14.6-0.5-19.2-6.6c-2.9-3.8-3.5-8.3-2.9-12.9
		c2.5-21.1,11.1-39.6,24.2-56.2c7.3-9.3,15.1-18.2,22.2-27.6c25.5-33.8,22.4-80.6-7.6-110.4c-23.7-23.6-52.5-31.1-84.4-21.7
		c-31.3,9.2-50.7,31-58.5,62.7C126.4,201.2,126.1,207.3,125.3,213.4z"/>
	<path class="st0" d="M193.1,189.3c10.9,0.4,19.9,4.9,28.2,11.4c1.5,1.2,2.9,2.4,4.5,3.4c2.3,1.5,3.9,1.3,5.9-0.7
		c0.9-0.9,1.6-2,2.3-2.9c6-7.6,16.7-9.5,24.1-4.3c8,5.6,10.4,16.3,5,24.5c-12,18.3-34.6,27.6-57.2,13.7c-3.1-1.9-5.9-4.3-8.8-6.5
		c-4.4-3.4-6.4-3.1-9.6,1.5c-4.2,5.8-9.9,8.6-17,7.8s-12.2-4.7-14.8-11.4c-2.1-5.4-1.5-10.9,1.6-15.8c6.4-9.7,15-16.5,26.4-19.5
		C186.7,189.7,189.9,189.7,193.1,189.3z"/>
</g>
<g>
	<path class="st0" d="M209.3,78.1c-8.6,0-15.6-7-15.6-15.6V15.6c0-8.6,7-15.6,15.6-15.6S225,7,225,15.6v46.9
		C225,71.1,218,78.1,209.3,78.1z"/>
</g>
<g>
	<path class="st0" d="M60.3,244.7H22.2c-6.9,0-12.5-5.6-12.5-12.5s5.6-12.5,12.5-12.5h38.1c6.9,0,12.5,5.6,12.5,12.5
		S67.2,244.7,60.3,244.7z"/>
</g>
<g>
	<path class="st0" d="M399,244.7h-38.1c-6.9,0-12.5-5.6-12.5-12.5s5.6-12.5,12.5-12.5H399c6.9,0,12.5,5.6,12.5,12.5
		S405.9,244.7,399,244.7z"/>
</g>
<g>
	<path class="st0" d="M79.7,130c-3.5,0-7-1.3-9.7-4L36.8,92.8c-5.4-5.4-5.4-14.1,0-19.4c5.4-5.4,14.1-5.4,19.4,0l33.1,33.1
		c5.4,5.4,5.4,14.1,0,19.4C86.7,128.7,83.2,130,79.7,130z"/>
</g>
<g>
	<path class="st0" d="M334,135c-3.5,0-7-1.3-9.7-4c-5.4-5.4-5.4-14.1,0-19.4l33.1-33.1c5.4-5.4,14.1-5.4,19.4,0
		c5.4,5.4,5.4,14.1,0,19.4L343.7,131C341,133.7,337.5,135,334,135z"/>
</g>
</svg>
