<svg xmlns="http://www.w3.org/2000/svg" viewBox="0 0 23.48 33.37"><defs><style>.cls-1{opacity:0.85;}.cls-2{fill:#fff;}</style></defs><title>Propuesta 2 copia 8</title><g id="Capa_6" data-name="Capa 6"><g class="cls-1"><path class="cls-2" d="M5,9.89v5.52C5,19.72,5,24,5,28.33A9.06,9.06,0,0,0,5.19,30,2.6,2.6,0,0,0,6.94,32a1.17,1.17,0,0,1,.25.14c.36.82.17,1.18-.65,1.19-1.91,0-3.81,0-5.71,0a4.15,4.15,0,0,1-.77-.15L0,32.33A4.06,4.06,0,0,1,.58,32a2.48,2.48,0,0,0,1.54-1.81,8.27,8.27,0,0,0,.27-1.85q0-11.71,0-23.42a10.09,10.09,0,0,0-.09-1.35A2.54,2.54,0,0,0,.64,1.26,3.66,3.66,0,0,1,.25,1L.19.24A3.74,3.74,0,0,1,1,0C2.64,0,4.27,0,5.89.09c.66,0,.88.23,1,.87Q8.18,6,9.41,11.08c.69,2.82,1.37,5.64,2.06,8.46a3.5,3.5,0,0,0,.17.39c.21-.82.4-1.52.58-2.22l3-11.53c.43-1.64.85-3.29,1.29-4.93C16.83.17,17.05,0,18.17,0c1.3,0,2.6,0,3.9,0a8.46,8.46,0,0,1,1.05.16l-.07.93c-1.72.54-2.14,1.79-2.14,3.31q0,11.84,0,23.65a5.06,5.06,0,0,0,.4,2.34A2.94,2.94,0,0,0,22.88,32c.64.27.69.42.51,1.26a3.37,3.37,0,0,1-.73.15H15.07c-.84,0-1-.32-.73-1.13,0,0,.06-.09.11-.1,2.12-.75,2.34-2.53,2.35-4.4,0-3.78,0-7.56,0-11.34q0-3.45,0-6.9a.75.75,0,0,0-.12-.44c-1.65,6.49-3.31,13-5,19.57l-.59.44a1,1,0,0,1-1.1-.91c-.94-3.52-1.91-7-2.87-10.56Q6.11,13.74,5.05,9.88Z"/></g></g></svg>