<svg xmlns="http://www.w3.org/2000/svg" viewBox="0 0 300.02 84.32"><defs><style>.cls-1{opacity:0.95;}.cls-2{fill:#fff;}</style></defs><title>Propuesta 2 copia 8</title><g id="Capa_6" data-name="Capa 6"><g class="cls-1"><path class="cls-2" d="M12.55,25V38.94c0,10.87,0,21.73.06,32.6a22.85,22.85,0,0,0,.5,4.11,6.53,6.53,0,0,0,4.42,5.24,3.7,3.7,0,0,1,.62.35c.91,2.07.44,3-1.65,3-4.8,0-9.6,0-14.41,0a10.55,10.55,0,0,1-1.93-.38L0,81.64a10.59,10.59,0,0,1,1.46-.89,6.23,6.23,0,0,0,3.89-4.57A19.93,19.93,0,0,0,6,71.52Q6.1,42,6.05,12.39A27.47,27.47,0,0,0,5.84,9C5.5,6.3,4.32,4.2,1.62,3.21a7.56,7.56,0,0,1-1-.54L.47.64A8.91,8.91,0,0,1,2.57.1c4.1,0,8.21,0,12.31.15,1.65,0,2.21.58,2.61,2.2Q20.64,15.23,23.75,28,26.36,38.67,29,49.35a7.18,7.18,0,0,0,.43,1c.54-2.07,1-3.84,1.46-5.61q3.81-14.55,7.64-29.1c1.09-4.15,2.16-8.3,3.26-12.44C42.48.47,43,.05,45.87,0c3.28,0,6.56,0,9.85,0a20.23,20.23,0,0,1,2.65.39l-.19,2.36c-4.35,1.35-5.39,4.51-5.39,8.35q0,29.85,0,59.7a12.88,12.88,0,0,0,1,5.91,7.53,7.53,0,0,0,3.94,3.89c1.62.66,1.76,1,1.28,3.16a7.88,7.88,0,0,1-1.84.4q-9.57,0-19.14,0c-2.14,0-2.63-.81-1.86-2.87.09-.09.17-.21.28-.25,5.36-1.89,5.92-6.38,5.94-11.1,0-9.54,0-19.08,0-28.61q0-8.72,0-17.43a1.91,1.91,0,0,0-.29-1.13C38,39.26,33.81,55.65,29.57,72.28L28.1,73.39a2.64,2.64,0,0,1-2.78-2.29c-2.38-8.9-4.82-17.78-7.24-26.67Q15.43,34.69,12.76,25Z"/><path class="cls-2" d="M224.55,83.91V81.47c.86-.46,1.71-.86,2.5-1.35C228.84,79,229.21,78,228.69,76c-1.94-7.58-3.83-15.16-5.81-22.73C220.5,44.15,218,35.09,215.62,26a9.79,9.79,0,0,0-.83-2.4L207.4,55c2.13,0,4,0,5.88,0s2.13.42,1.89,2.55c-.58.22-1.27.47-1.94.77a63.32,63.32,0,0,0-6.1,2.93,4.9,4.9,0,0,0-2,2.6c-1.1,3.69-2,7.42-2.88,11.17-.48,2.12.94,4.46,3.12,5.55.61.31,1.23.6,2.13,1L207,84.29h-2.73c-4,0-8.09,0-12.13,0-2.25,0-2.77-.9-1.8-3.1,4.66-1.41,6-5.52,7.11-9.63,3-11.21,5.84-22.46,8.7-33.71,2-7.94,4-15.9,6-23.85,1-3.91,2-7.81,3.06-11.71a3.84,3.84,0,0,1,.25-.72A2.25,2.25,0,0,1,217.56,0a2.15,2.15,0,0,1,1.95,1.79c.88,3.16,1.79,6.31,2.66,9.48q2.6,9.5,5.16,19c2.8,10.28,5.58,20.57,8.41,30.84,1,3.83,2,7.7,3.34,11.44a21,21,0,0,0,3.1,5.15,8,8,0,0,0,4.49,3c1.27.35,1.86,1.13,1.68,2.13-.2,1.18-1.07,1.45-2.11,1.45H234.3c-2.46,0-4.93,0-7.39,0A18.35,18.35,0,0,1,224.55,83.91Z"/><path class="cls-2" d="M136.27,83a27.87,27.87,0,0,1,.94-3.34c2.71-6.47,5.48-12.9,8.22-19.35q7.83-18.39,15.65-36.77,3.51-8.28,7-16.57c.15-.34.25-.7.41-1.17a11.34,11.34,0,0,0-1.17-.12c-7.26,0-14.53-.07-21.8.06A14.08,14.08,0,0,0,140.63,7c-1.6.64-2.43,2.13-2.85,4l-2.41.21A17.46,17.46,0,0,1,135,8.94c0-1.83,0-3.66,0-5.49,0-2.61.77-3.4,3.39-3.4q14.61,0,29.2,0c3.47,0,7,0,10.42.07,2.92.07,3.73,1.35,2.58,4.05-3.47,8.12-7,16.22-10.49,24.34Q161.08,49.66,152,70.8c-1.11,2.6-2.26,5.18-3.39,7.76.23.12.34.23.44.23,6.76,0,13.52,0,20.28-.09a14.14,14.14,0,0,0,4.73-1.19c2.15-.86,3.16-2.81,3.82-4.82,2.23-1,3-.5,3.07,1.79s0,4.68,0,7c0,2.09-.74,2.78-2.91,2.78q-12.22,0-24.45,0c-4.74,0-9.48,0-14.22,0A3.83,3.83,0,0,1,136.27,83Z"/><path class="cls-2" d="M97.83,1.55c1.52,5.47,3,10.93,4.55,16.41q3.38,12.32,6.73,24.64c2.51,9.25,5,18.52,7.51,27.76a18.44,18.44,0,0,0,3.72,7.17A9.74,9.74,0,0,0,126,80.94l.93,1.59a2,2,0,0,1-2.3,1.73q-9.86,0-19.71,0a1.79,1.79,0,0,1-2.07-1.74,2.3,2.3,0,0,1,1.64-1.81c2.84-1.21,3.32-2.26,2.56-5.15q-3.66-14.1-7.3-28.21c-2-7.75-4.07-15.49-6.38-23.28C91,34.35,88.53,44.63,86,55.2h7.15c1.14,1,1,1.86.37,2.57-2.13.85-4.14,1.6-6.09,2.46a7.16,7.16,0,0,0-4.27,5.61c-.56,2.84-1.42,5.63-2.11,8.44a5.19,5.19,0,0,0,3.16,6.32c1.1.44,1.92.93,1.9,2.28a1.77,1.77,0,0,1-2,1.36c-4.61,0-9.23.05-13.84,0q-2.64,0-1.27-3c4.54-1.41,5.91-5.43,7-9.47C78,64.88,79.68,58,81.44,51.06c2-7.83,3.94-15.66,5.93-23.48Q90.54,15.2,93.73,2.84C94.31.58,95.54.12,97.83,1.55Z"/><path class="cls-2" d="M248.87.3c6.28.21,12.59-.41,18.72,0,.82,1.45.58,2.35-.55,2.84-2.43,1.06-3.18,3.17-3.39,5.49s-.11,4.41-.11,6.62q.06,28.89.12,57.78c0,1.83.12,3.65.2,5.73h2.19c6.7,0,13.39,0,20.09,0a25.25,25.25,0,0,0,5.05-.6,7.29,7.29,0,0,0,5.57-4.88c.11-.29.27-.56.38-.8,2.08-.82,2.85-.38,2.87,1.63,0,3,0,5.93,0,8.66a3,3,0,0,1-2.92,1.48q-17.82,0-35.62.06c-1.71,0-3.41,0-5.12,0-2.17,0-2.85-.65-2.86-2.8q-.13-15.26-.21-30.5c-.05-12.38-.06-24.76-.14-37.13a45.66,45.66,0,0,0-.53-6.4,5,5,0,0,0-3.12-4.2C248.19,2.73,248.1,2.21,248.87.3Z"/></g></g></svg>