<svg xmlns="http://www.w3.org/2000/svg" viewBox="0 0 127.16 146"><defs><style>.cls-1{fill:#fff;}.cls-2{fill:#201818;}</style></defs><title>mazal-mark</title><g id="Capa_2" data-name="Capa 2"><g id="Capa_1-2" data-name="Capa 1"><path class="cls-1" d="M127.16,5.37V121.79a5.36,5.36,0,0,1-5.37,5.37H82.42L63.58,146,44.74,127.16H5.37A5.36,5.36,0,0,1,0,121.79V5.37A5.37,5.37,0,0,1,5.37,0H121.79A5.37,5.37,0,0,1,127.16,5.37Z"/><path class="cls-2" d="M46.5,42.88V56.82c0,10.87,0,21.73.06,32.6a23.67,23.67,0,0,0,.5,4.11,6.55,6.55,0,0,0,4.42,5.24,3.42,3.42,0,0,1,.62.35c.91,2.07.44,3-1.65,3H36a10.63,10.63,0,0,1-1.93-.38L34,99.52a11,11,0,0,1,1.46-.89,6.22,6.22,0,0,0,3.89-4.57A19.83,19.83,0,0,0,40,89.4q.11-29.52,0-59.13a27.42,27.42,0,0,0-.21-3.39c-.34-2.7-1.52-4.8-4.22-5.79a8.06,8.06,0,0,1-1-.54l-.15-2a9,9,0,0,1,2.1-.54c4.1,0,8.21,0,12.31.15,1.65,0,2.21.58,2.61,2.2q3.15,12.78,6.26,25.55Q60.31,56.55,63,67.23a8.85,8.85,0,0,0,.43,1l1.46-5.61q3.81-14.55,7.64-29.1c1.09-4.15,2.16-8.3,3.26-12.44.69-2.73,1.21-3.15,4.08-3.2h9.85a19.68,19.68,0,0,1,2.65.39l-.19,2.36C87.78,22,86.74,25.14,86.74,29v59.7a13,13,0,0,0,1,5.91,7.56,7.56,0,0,0,3.94,3.89c1.62.66,1.76,1,1.28,3.16a7.65,7.65,0,0,1-1.84.4H72c-2.14,0-2.63-.81-1.86-2.87.09-.09.17-.21.28-.25,5.36-1.89,5.92-6.38,5.94-11.1v-46a1.81,1.81,0,0,0-.29-1.13C72,57.14,67.76,73.53,63.52,90.16l-1.47,1.11A2.64,2.64,0,0,1,59.27,89C56.89,80.08,54.45,71.2,52,62.31q-2.64-9.73-5.32-19.43Z"/></g></g></svg>