<svg xmlns="http://www.w3.org/2000/svg" viewBox="0 0 19.82 36.63"><defs><style>.cls-1{fill:#8c7d6c;}</style></defs><title>facebook-social-media</title><g id="Capa_2" data-name="Capa 2"><g id="Capa_1-2" data-name="Capa 1"><path class="cls-1" d="M18.89,7.1c-1.22,0-2.44,0-3.66,0a1.8,1.8,0,0,0-1.79,1.12,3.09,3.09,0,0,0-.17,1c0,1.23,0,2.46,0,3.69,0,.25.14.22.29.22H18.6c.72,0,1,.26,1,1v5.63c0,.64-.27.91-.92.91-1.69,0-3.38,0-5.06,0-.28,0-.36,0-.36.35,0,4.86,0,9.72,0,14.58,0,.79-.23,1-1,1-1.92,0-3.84,0-5.76,0-.68,0-.94-.26-.94-.94V28.39c0-2.47,0-4.93,0-7.39,0-.25,0-.33-.31-.33-1.44,0-2.88,0-4.32,0-.62,0-.9-.27-.9-.9V14.06a.79.79,0,0,1,.91-.9c1.43,0,2.87,0,4.31,0,.27,0,.31-.09.31-.33,0-1.6-.06-3.2,0-4.8A9,9,0,0,1,7.23,3.29a7.76,7.76,0,0,1,4.7-3A10.71,10.71,0,0,1,14.39,0H18.9a.79.79,0,0,1,.91.9c0,1.76,0,3.53,0,5.29C19.81,6.83,19.54,7.09,18.89,7.1Z"/></g></g></svg>