<svg xmlns="http://www.w3.org/2000/svg" viewBox="0 0 272.67 229.79"><defs><style>.cls-1{fill:#2b221b;}</style></defs><title>favorite</title><g id="Capa_2" data-name="Capa 2"><g id="Capa_1-2" data-name="Capa 1"><path class="cls-1" d="M136.33,229.79a23.39,23.39,0,0,1-16.6-6.86l-99-99a73,73,0,1,1,115.6-87.42,73.07,73.07,0,0,1,136,29h0A72.85,72.85,0,0,1,252,123.84l-99.09,99.09A23.38,23.38,0,0,1,136.33,229.79ZM73,19.45a54.39,54.39,0,0,0-6.08.34,53.53,53.53,0,0,0-32.32,90.47l98.92,98.92a4,4,0,0,0,5.7,0l99-99a53.57,53.57,0,1,0-90.13-51.73,12.06,12.06,0,0,1-11.72,8.88h0a12,12,0,0,1-11.72-8.87A53.47,53.47,0,0,0,73,19.45Zm56.38,33.71s0,0,0,0S129.34,53.17,129.34,53.16Z"/></g></g></svg>