<svg xmlns="http://www.w3.org/2000/svg" viewBox="0 0 36.62 36.62"><defs><style>.cls-1{fill:#8c7d6c;}</style></defs><title>instagram-social-media</title><g id="Capa_2" data-name="Capa 2"><g id="Capa_1-2" data-name="Capa 1"><path class="cls-1" d="M36.62,17.31c0-2.36,0-4.71,0-7.06a9.4,9.4,0,0,0-.86-4.19,10,10,0,0,0-9.52-6c-2.95,0-5.9,0-8.84,0C15,0,12.63,0,10.25,0A9.54,9.54,0,0,0,6.06.86a10,10,0,0,0-6,9.52c0,2.91,0,5.81,0,8.72C0,21.52,0,24,0,26.37a9.54,9.54,0,0,0,.86,4.19,10,10,0,0,0,9.52,6.05c2.65,0,5.29,0,7.93,0h0c2.86,0,5.72,0,8.59,0a8.93,8.93,0,0,0,4.63-1.34,9.94,9.94,0,0,0,5.08-9C36.63,23.29,36.62,20.3,36.62,17.31ZM31.7,31a6.79,6.79,0,0,1-5.34,2.41c-5.37,0-10.75,0-16.12,0a6.85,6.85,0,0,1-6.88-5.68,9.73,9.73,0,0,1-.11-1.43c0-5.3,0-10.6,0-15.9a6.92,6.92,0,0,1,5.66-7,7.5,7.5,0,0,1,1.34-.12c5.37,0,10.75,0,16.12,0a6.86,6.86,0,0,1,6.81,5.23,7.52,7.52,0,0,1,.2,1.95q0,3.93,0,7.88c0,2.66,0,5.32,0,8A6.85,6.85,0,0,1,31.7,31Z"/><path class="cls-1" d="M18.31,8.89a9.43,9.43,0,1,0,9.43,9.41A9.41,9.41,0,0,0,18.31,8.89Zm0,15.61a6.19,6.19,0,1,1,6.21-6.17A6.22,6.22,0,0,1,18.29,24.5Z"/><path class="cls-1" d="M28.14,6.12a2.39,2.39,0,1,0,2.38,2.39A2.39,2.39,0,0,0,28.14,6.12Z"/></g></g></svg>