<svg xmlns="http://www.w3.org/2000/svg" viewBox="0 0 37.3 37.3"><defs><style>.cls-1{fill:#8c7d6c;}</style></defs><title>pinterest-social-media</title><g id="Capa_2" data-name="Capa 2"><g id="Capa_1-2" data-name="Capa 1"><path class="cls-1" d="M29.26,3.33A18.2,18.2,0,0,0,15.55.27,17.92,17.92,0,0,0,6.3,4.73,18.54,18.54,0,0,0,0,19a18.2,18.2,0,0,0,1.77,7.58,18.57,18.57,0,0,0,8.51,8.75c.64.33,1,.11,1-.61A12.74,12.74,0,0,1,11.39,32c.47-2.32,1-4.62,1.61-6.91a13.08,13.08,0,0,0,.32-5.46,6,6,0,0,1,.45-3.6,3.67,3.67,0,0,1,1.91-2,2.46,2.46,0,0,1,3.6,2.09,5.76,5.76,0,0,1-.21,2.15c-.43,1.6-.92,3.18-1.35,4.79a2.8,2.8,0,0,0,1.72,3.48,3.84,3.84,0,0,0,2.61,0,5.83,5.83,0,0,0,3.46-3.07,11.71,11.71,0,0,0,1.26-6.85A7.41,7.41,0,0,0,24,11.41a8.36,8.36,0,0,0-5.27-1.75,8.81,8.81,0,0,0-6.5,2.45,8.27,8.27,0,0,0-1.1,10.66.7.7,0,0,1,.12.64c-.17.65-.32,1.3-.48,2s-.33.7-.91.39A6.51,6.51,0,0,1,7.26,23a10.49,10.49,0,0,1-1.11-6.74,11.31,11.31,0,0,1,4.32-7.44,13,13,0,0,1,6.65-2.55,13.69,13.69,0,0,1,7.5,1.08,10.88,10.88,0,0,1,6.57,8.83,13.35,13.35,0,0,1-1.53,8.24,9.6,9.6,0,0,1-8.5,5.49,5.59,5.59,0,0,1-3.93-1.35c-.55-.46-.91-.36-1.08.32-.26,1-.53,2-.78,3a17.33,17.33,0,0,1-1.56,3.87c-.26.49-.14.83.33,1a18.1,18.1,0,0,0,7.54.29A18.46,18.46,0,0,0,32.4,31a17.9,17.9,0,0,0,4.37-16.69A18,18,0,0,0,29.26,3.33Z"/></g></g></svg>