<svg xmlns="http://www.w3.org/2000/svg" viewBox="0 0 1050.76 270.74"><defs><style>.cls-1{fill:#fff;}</style></defs><title>right-arrow</title><g id="Capa_2" data-name="Capa 2"><g id="Capa_1-2" data-name="Capa 1"><path class="cls-1" d="M1049.34,138.73,918.86,269.32a4.82,4.82,0,0,1-6.83,0l-1.69-1.68a4.85,4.85,0,0,1,0-6.84l119.49-119.49H4.83A4.83,4.83,0,0,1,0,136.48v-2.34a4.83,4.83,0,0,1,4.83-4.83h1025L910.35,9.94a4.84,4.84,0,0,1,0-6.84L912,1.42a4.82,4.82,0,0,1,6.83,0l130.48,130.47A4.83,4.83,0,0,1,1049.34,138.73Z"/></g></g></svg>