<svg xmlns="http://www.w3.org/2000/svg" viewBox="0 0 36.63 29.87"><defs><style>.cls-1{fill:#8c7d6c;}</style></defs><title>twitter-social-media</title><g id="Capa_2" data-name="Capa 2"><g id="Capa_1-2" data-name="Capa 1"><path class="cls-1" d="M35.68.57a16.09,16.09,0,0,1-4.3,1.71A.78.78,0,0,1,30.55,2,7.51,7.51,0,0,0,18,8.91c.05.3,0,.34-.29.32a20.15,20.15,0,0,1-2.46-.3A21.23,21.23,0,0,1,4.49,3.48a26.62,26.62,0,0,1-2-2.11,7.45,7.45,0,0,0-1,4.27,7.53,7.53,0,0,0,3.18,5.69c.07,0,.14.09.11.11a.2.2,0,0,1-.26,0,7.65,7.65,0,0,1-3-.84c-.16.09,0,.26-.09.38.32,3.71,2.38,6,5.92,7.06a6.17,6.17,0,0,1-1.66.22,7.36,7.36,0,0,1-1.61-.11,7.57,7.57,0,0,0,6.67,5.22H11s.07,0,0,.06-.05,0-.07,0a12.58,12.58,0,0,1-2.86,1.76,14.73,14.73,0,0,1-4.26,1.26A17.88,17.88,0,0,1,0,26.5l.24.16A19.27,19.27,0,0,0,2.6,28a22,22,0,0,0,13.09,1.54,19.89,19.89,0,0,0,12-7A21.75,21.75,0,0,0,33,8a.94.94,0,0,1,.42-.86A13.44,13.44,0,0,0,36.63,3.6a17.28,17.28,0,0,1-4.18,1.1A7.69,7.69,0,0,0,35.68.57Z"/></g></g></svg>