<svg xmlns="http://www.w3.org/2000/svg" viewBox="0 0 50.35 50.33"><defs><style>.cls-1{fill:#8c7d6c;}</style></defs><title>whastapp-social-media</title><g id="Capa_2" data-name="Capa 2"><g id="Capa_1-2" data-name="Capa 1"><path class="cls-1" d="M46,10.62C39.49,2,30.86-1.52,20.22.61a24.39,24.39,0,0,0-19,20.2A24,24,0,0,0,4,36.43a1.18,1.18,0,0,1,.09,1c-1.34,3.88-2.65,7.77-4,11.65-.11.34-.25.69.06,1s.66.18,1,.08l12.12-3.88a1.43,1.43,0,0,1,1.18.09A24.61,24.61,0,0,0,29.26,48.8,24.2,24.2,0,0,0,44.82,40a23.8,23.8,0,0,0,5.31-18.69A22,22,0,0,0,46,10.62Zm.82,16.29a19.9,19.9,0,0,1-9.87,15.5c-7.46,4.51-15.08,4.42-22.62,0a1.66,1.66,0,0,0-1.57-.18c-1.93.66-8.11,3.5-8.11,3.5s2.91-5.56,3.63-7.55A1.77,1.77,0,0,0,8,36.41,20,20,0,0,1,4.28,24.73,20.76,20.76,0,0,1,9.74,10.44,20.67,20.67,0,0,1,21.82,3.72,20.61,20.61,0,0,1,39.13,8.18,20.28,20.28,0,0,1,46.79,26.91Z"/><path class="cls-1" d="M37.69,29.14c-1.61-.83-3.26-1.6-4.92-2.32a1.43,1.43,0,0,0-2,.53c-.53.65-1.08,1.29-1.59,2a.63.63,0,0,1-.89.22A18.49,18.49,0,0,1,20.78,23c-.17-.23-.12-.37,0-.56a10.92,10.92,0,0,0,1.38-1.73,2.17,2.17,0,0,0,.16-2.11c-.58-1.27-1.08-2.57-1.62-3.86-.7-1.69-1.16-1.93-3-1.62l-.24,0A4.31,4.31,0,0,0,14,15.82a8.08,8.08,0,0,0,0,6.67A21.51,21.51,0,0,0,17.51,28,22.05,22.05,0,0,0,26,34.68a18.41,18.41,0,0,0,6.39,1.62,5.77,5.77,0,0,0,.72,0c2.58-.32,5.59-2.13,5.41-5.81A1.43,1.43,0,0,0,37.69,29.14Z"/></g></g></svg>